<svg width="50" height="50" xmlns="http://www.w3.org/2000/svg" style="vector-effect: non-scaling-stroke;">
 <!-- Created with Method Draw - http://github.com/duopixel/Method-Draw/ -->
 <g id="Layer_1">
  <title>Layer 1</title>
  <path id="svg_2" d="m-3.77472,-22.17337l-0.04352,-0.04352l0,-0.10394l-0.03731,0l0,0.06663l-0.08706,-0.08706l-0.16789,0.16789l0.03997,-0.00096l0,0.16974l0.25407,0l0,-0.16879l0.04175,0zm-0.16789,0.14451l-0.08291,0l0,-0.09949l0.08291,0l0,0.09949zm0.08055,-0.04264l-0.05448,0l0,-0.05745l0.05448,0l0,0.05745z" opacity="undefined" stroke-opacity="0" stroke-dasharray="null" stroke-width="null" stroke="#000000" fill="#ffffff"/>
  <path id="svg_9" d="m88.1581,-52.33525l-0.01531,-0.04353l0,-0.10394l-0.01312,0l0,0.06663l-0.03062,-0.08706l-0.05906,0.1679l0.01406,-0.00095l0,0.16973l0.08937,0l0,-0.16878l0.01469,0zm-0.05906,0.14451l-0.02917,0l0,-0.09949l0.02917,0l0,0.09949zm0.02834,-0.04265l-0.01917,0l0,-0.05744l0.01917,0l0,0.05744z" opacity="undefined" fill-opacity="0" stroke-opacity="null" stroke-dasharray="null" stroke-width="null" stroke="#ffffff" fill="#000000"/>
  <path id="svg_13" d="m-19.07113,59.97336c-0.12333,0 -0.22328,0.02003 -0.22328,0.04475c0,0.0247 0.09995,0.04475 0.22328,0.04475c0.02826,0 0.05504,-0.00116 0.07994,-0.00309l0.04782,0.01473l0.07775,-0.01014l-0.04755,-0.01464c0.04033,-0.00809 0.06534,-0.01927 0.06534,-0.03161c0,-0.02472 -0.09995,-0.04475 -0.2233,-0.04475zm-0.00085,-0.12112c-0.45922,0 -0.83149,0.0746 -0.83149,0.16665c0,0.09203 0.37227,0.16665 0.83149,0.16665c0.45922,0 0.83149,-0.07461 0.83149,-0.16665c0,-0.09205 -0.37227,-0.16665 -0.83149,-0.16665zm0.58207,0.22178c-0.01379,0.00578 -0.02935,0.01134 -0.04727,0.01662l-0.18065,-0.00779c-0.02752,0.00603 -0.05888,0.0114 -0.0935,0.01588l0.00681,0.03672c-0.02901,0.00263 -0.05882,0.00482 -0.08976,0.00653l-0.11185,-0.02883c-0.02128,0.00058 -0.0429,0.00098 -0.06499,0.00098c-0.02036,0 -0.04038,-0.00033 -0.06013,-0.00085l-0.11126,0.02867c-0.03097,-0.00174 -0.06093,-0.00392 -0.08983,-0.00653l0.0067,-0.03607c-0.03627,-0.00457 -0.06912,-0.01009 -0.09795,-0.01637l-0.17588,0.00755c-0.0179,-0.00524 -0.03335,-0.01082 -0.04725,-0.01661l0.11946,-0.02648c-0.01294,-0.00806 -0.02025,-0.01663 -0.02204,-0.02548l-0.15836,-0.01678c0.00314,-0.00646 0.00945,-0.0127 0.01722,-0.01884l0.17645,-0.00489c0.01659,-0.00805 0.0386,-0.0155 0.06493,-0.02227l-0.06761,-0.03326c0.02283,-0.00446 0.04747,-0.00853 0.07339,-0.01227l0.15235,0.01918c0.03719,-0.00386 0.07717,-0.0068 0.11927,-0.0086l0.05539,-0.03441c0.01591,-0.00024 0.03175,-0.00048 0.04788,-0.00048c0.01613,0 0.03204,0.00025 0.04788,0.00048l0.05585,0.03472c0.04118,0.00187 0.08014,0.00477 0.11647,0.0086l0.15469,-0.01945c0.02604,0.00373 0.05077,0.00781 0.07353,0.01226l-0.06957,0.03424c0.02448,0.00648 0.04537,0.01354 0.06111,0.02116l0.18221,0.00506c0.00773,0.00613 0.01414,0.01239 0.01728,0.01883l-0.16403,0.01738c-0.00194,0.00833 -0.00858,0.0164 -0.0203,0.02409l0.12335,0.02731z" opacity="undefined" stroke-opacity="0" stroke-dasharray="null" stroke-width="null" stroke="#000000" fill="#ffffff"/>
  <path id="svg_14" d="m-10.10981,7.53323c-0.02485,0 -0.04498,0.00873 -0.04498,0.01952c0,0.01077 0.02013,0.01952 0.04498,0.01952c0.00569,0 0.01109,-0.00051 0.0161,-0.00135l0.00963,0.00643l0.01566,-0.00443l-0.00958,-0.00638c0.00813,-0.00353 0.01316,-0.00841 0.01316,-0.01378c0,-0.01078 -0.02013,-0.01952 -0.04498,-0.01952zm-0.00017,-0.05282c-0.09251,0 -0.1675,0.03254 -0.1675,0.07267c0,0.04013 0.07499,0.07267 0.1675,0.07267c0.09251,0 0.1675,-0.03254 0.1675,-0.07267c0,-0.04013 -0.07499,-0.07267 -0.1675,-0.07267zm0.11725,0.09671c-0.00278,0.00252 -0.00591,0.00495 -0.00952,0.00725l-0.03639,-0.0034c-0.00554,0.00263 -0.01186,0.00497 -0.01883,0.00692l0.00137,0.01601c-0.00584,0.00115 -0.01185,0.0021 -0.01808,0.00285l-0.02253,-0.01257c-0.00429,0.00025 -0.00865,0.00043 -0.01309,0.00043c-0.0041,0 -0.00814,-0.00014 -0.01211,-0.00037l-0.02242,0.0125c-0.00623,-0.00076 -0.01227,-0.00171 -0.01809,-0.00285l0.00135,-0.01573c-0.00731,-0.00199 -0.01392,-0.0044 -0.01973,-0.00713l-0.03543,0.00329c-0.00361,-0.00228 -0.00672,-0.00472 -0.00952,-0.00724l0.02406,-0.01154c-0.0026,-0.00352 -0.00408,-0.00726 -0.00444,-0.01112l-0.0319,-0.00732c0.00064,-0.00282 0.0019,-0.00554 0.00347,-0.00821l0.03554,-0.00214c0.00334,-0.00351 0.00778,-0.00676 0.01308,-0.00971l-0.01362,-0.0145c0.0046,-0.00195 0.00957,-0.00372 0.01479,-0.00535l0.03069,0.00836c0.00749,-0.00169 0.01555,-0.00296 0.02403,-0.00375l0.01116,-0.01501c0.0032,-0.0001 0.0064,-0.00021 0.00964,-0.00021c0.00325,0 0.00645,0.00011 0.00965,0.00021l0.01125,0.01514c0.0083,0.00081 0.01614,0.00208 0.02346,0.00375l0.03116,-0.00848c0.00524,0.00163 0.01022,0.00341 0.01481,0.00535l-0.01401,0.01493c0.00493,0.00282 0.00914,0.00591 0.01231,0.00922l0.03671,0.0022c0.00155,0.00268 0.00285,0.00541 0.00348,0.00822l-0.03304,0.00758c-0.00039,0.00363 -0.00173,0.00715 -0.00409,0.0105l0.02485,0.01191z" opacity="undefined" stroke-opacity="0" stroke-dasharray="null" stroke-width="null" stroke="#000000" fill="#ffffff"/>
  <path id="svg_15" d="m24.45787,25.10087c-0.01078,0 -0.01951,0.00874 -0.01951,0.01951c0,0.01078 0.00874,0.01952 0.01951,0.01952c0.00247,0 0.00481,-0.00051 0.00699,-0.00135l0.00418,0.00643l0.0068,-0.00443l-0.00416,-0.00638c0.00352,-0.00353 0.00571,-0.00841 0.00571,-0.01379c0,-0.01078 -0.00874,-0.01951 -0.01952,-0.01951zm-0.00007,-0.05282c-0.04013,0 -0.07267,0.03254 -0.07267,0.07267c0,0.04013 0.03254,0.07267 0.07267,0.07267c0.04013,0 0.07267,-0.03254 0.07267,-0.07267c0,-0.04013 -0.03254,-0.07267 -0.07267,-0.07267zm0.05087,0.09672c-0.00121,0.00252 -0.00257,0.00495 -0.00413,0.00725l-0.01579,-0.0034c-0.00241,0.00263 -0.00515,0.00497 -0.00817,0.00692l0.0006,0.01601c-0.00253,0.00115 -0.00514,0.00211 -0.00784,0.00285l-0.00978,-0.01257c-0.00186,0.00026 -0.00375,0.00043 -0.00568,0.00043c-0.00178,0 -0.00353,-0.00014 -0.00525,-0.00037l-0.00972,0.0125c-0.00271,-0.00076 -0.00533,-0.00171 -0.00785,-0.00284l0.00059,-0.01573c-0.00317,-0.00199 -0.00604,-0.0044 -0.00856,-0.00714l-0.01537,0.00329c-0.00156,-0.00228 -0.00291,-0.00472 -0.00413,-0.00724l0.01044,-0.01155c-0.00113,-0.00352 -0.00177,-0.00726 -0.00193,-0.01112l-0.01384,-0.00732c0.00027,-0.00282 0.00083,-0.00554 0.0015,-0.00821l0.01542,-0.00214c0.00145,-0.00351 0.00337,-0.00676 0.00567,-0.00971l-0.00591,-0.0145c0.002,-0.00195 0.00415,-0.00372 0.00641,-0.00535l0.01332,0.00836c0.00325,-0.00169 0.00674,-0.00297 0.01042,-0.00375l0.00484,-0.01501c0.00139,-0.0001 0.00278,-0.00021 0.00418,-0.00021c0.00141,0 0.0028,0.00011 0.00418,0.00021l0.00488,0.01514c0.0036,0.00082 0.007,0.00208 0.01018,0.00375l0.01352,-0.00849c0.00228,0.00163 0.00444,0.0034 0.00643,0.00535l-0.00608,0.01493c0.00214,0.00282 0.00397,0.0059 0.00534,0.00922l0.01592,0.0022c0.00068,0.00268 0.00124,0.00541 0.00151,0.00821l-0.01434,0.00758c-0.00017,0.00363 -0.00075,0.00715 -0.00177,0.0105l0.01078,0.01191z" opacity="undefined" stroke-opacity="0" stroke-dasharray="null" stroke-width="null" stroke="#000000" fill="#ffffff"/>
  <path id="svg_16" d="m37.71646,24.10648c-0.01078,0 -0.01952,0.00874 -0.01952,0.01951c0,0.01078 0.00874,0.01952 0.01952,0.01952c0.00247,0 0.00481,-0.00051 0.00698,-0.00135l0.00418,0.00643l0.00679,-0.00443l-0.00415,-0.00638c0.00352,-0.00353 0.00571,-0.00841 0.00571,-0.01379c0,-0.01078 -0.00874,-0.01951 -0.01952,-0.01951zm-0.00007,-0.05282c-0.04014,0 -0.07267,0.03254 -0.07267,0.07267c0,0.04013 0.03253,0.07267 0.07267,0.07267c0.04013,0 0.07267,-0.03254 0.07267,-0.07267c0,-0.04013 -0.03254,-0.07267 -0.07267,-0.07267zm0.05087,0.09672c-0.00121,0.00252 -0.00257,0.00495 -0.00413,0.00725l-0.01579,-0.0034c-0.00241,0.00263 -0.00515,0.00497 -0.00817,0.00692l0.0006,0.01601c-0.00253,0.00115 -0.00514,0.00211 -0.00784,0.00285l-0.00978,-0.01257c-0.00186,0.00026 -0.00375,0.00043 -0.00568,0.00043c-0.00178,0 -0.00353,-0.00014 -0.00525,-0.00037l-0.00973,0.0125c-0.0027,-0.00076 -0.00533,-0.00171 -0.00785,-0.00284l0.00059,-0.01573c-0.00317,-0.00199 -0.00604,-0.0044 -0.00856,-0.00714l-0.01537,0.00329c-0.00157,-0.00228 -0.00291,-0.00472 -0.00413,-0.00724l0.01044,-0.01155c-0.00113,-0.00352 -0.00177,-0.00726 -0.00193,-0.01112l-0.01384,-0.00732c0.00027,-0.00282 0.00082,-0.00554 0.00151,-0.00821l0.01542,-0.00214c0.00145,-0.00351 0.00338,-0.00676 0.00568,-0.00971l-0.00591,-0.0145c0.002,-0.00195 0.00415,-0.00372 0.00642,-0.00535l0.01331,0.00836c0.00325,-0.00169 0.00675,-0.00297 0.01043,-0.00375l0.00484,-0.01501c0.00139,-0.0001 0.00277,-0.00021 0.00418,-0.00021c0.00141,0 0.0028,0.00011 0.00418,0.00021l0.00488,0.01514c0.0036,0.00082 0.00701,0.00208 0.01018,0.00375l0.01352,-0.00849c0.00228,0.00163 0.00444,0.0034 0.00643,0.00535l-0.00608,0.01493c0.00214,0.00282 0.00396,0.0059 0.00534,0.00922l0.01592,0.0022c0.00068,0.00268 0.00124,0.00541 0.00151,0.00821l-0.01434,0.00758c-0.00017,0.00363 -0.00075,0.00715 -0.00177,0.0105l0.01078,0.01191z" opacity="undefined" stroke-opacity="0" stroke-dasharray="null" stroke-width="null" stroke="#000000" fill="#ffffff"/>
  <path id="svg_17" d="m27.77252,15.48839c-0.01078,0 -0.01951,0.00873 -0.01951,0.01952c0,0.01077 0.00874,0.01952 0.01951,0.01952c0.00247,0 0.00481,-0.00051 0.00699,-0.00135l0.00418,0.00642l0.0068,-0.00443l-0.00416,-0.00638c0.00352,-0.00353 0.00571,-0.0084 0.00571,-0.01378c0,-0.01078 -0.00874,-0.01952 -0.01952,-0.01952zm-0.00007,-0.05282c-0.04013,0 -0.07267,0.03253 -0.07267,0.07267c0,0.04014 0.03254,0.07267 0.07267,0.07267c0.04013,0 0.07267,-0.03253 0.07267,-0.07267c0,-0.04014 -0.03254,-0.07267 -0.07267,-0.07267zm0.05087,0.09671c-0.00121,0.00252 -0.00257,0.00495 -0.00413,0.00725l-0.01579,-0.0034c-0.00241,0.00263 -0.00515,0.00497 -0.00817,0.00693l0.0006,0.01601c-0.00253,0.00115 -0.00514,0.00211 -0.00784,0.00285l-0.00978,-0.01257c-0.00186,0.00026 -0.00375,0.00043 -0.00568,0.00043c-0.00178,0 -0.00353,-0.00014 -0.00525,-0.00037l-0.00972,0.0125c-0.00271,-0.00075 -0.00533,-0.00171 -0.00785,-0.00284l0.00059,-0.01573c-0.00317,-0.00199 -0.00604,-0.0044 -0.00856,-0.00713l-0.01537,0.00329c-0.00156,-0.00228 -0.00291,-0.00472 -0.00413,-0.00724l0.01044,-0.01155c-0.00113,-0.00352 -0.00177,-0.00726 -0.00193,-0.01112l-0.01384,-0.00732c0.00027,-0.00281 0.00083,-0.00554 0.0015,-0.00821l0.01542,-0.00213c0.00145,-0.00351 0.00337,-0.00676 0.00567,-0.00971l-0.00591,-0.01451c0.002,-0.00194 0.00415,-0.00372 0.00641,-0.00535l0.01332,0.00836c0.00325,-0.00169 0.00674,-0.00297 0.01042,-0.00375l0.00484,-0.01501c0.00139,-0.0001 0.00278,-0.00021 0.00418,-0.00021c0.00141,0 0.0028,0.00011 0.00418,0.00021l0.00488,0.01514c0.0036,0.00081 0.007,0.00208 0.01018,0.00375l0.01352,-0.00848c0.00228,0.00163 0.00444,0.0034 0.00643,0.00535l-0.00608,0.01493c0.00214,0.00282 0.00397,0.00591 0.00534,0.00922l0.01592,0.0022c0.00068,0.00268 0.00124,0.00541 0.00151,0.00821l-0.01434,0.00758c-0.00017,0.00363 -0.00075,0.00715 -0.00177,0.0105l0.01078,0.01191z" opacity="undefined" stroke-opacity="0" stroke-dasharray="null" stroke-width="null" stroke="#000000" fill="#ffffff"/>
  <path id="svg_19" d="m-26.68233,35.77494c-0.02493,0 -0.04513,0.02013 -0.04513,0.04498c0,0.02483 0.0202,0.04498 0.04513,0.04498c0.00571,0 0.01112,-0.00117 0.01616,-0.00311l0.00966,0.01481l0.01572,-0.0102l-0.00961,-0.01471c0.00815,-0.00813 0.01321,-0.01937 0.01321,-0.03177c0,-0.02485 -0.0202,-0.04498 -0.04513,-0.04498zm-0.00017,-0.12174c-0.09281,0 -0.16805,0.07498 -0.16805,0.1675c0,0.09251 0.07524,0.1675 0.16805,0.1675c0.09281,0 0.16805,-0.07499 0.16805,-0.1675c0,-0.09251 -0.07524,-0.1675 -0.16805,-0.1675zm0.11764,0.22292c-0.00279,0.0058 -0.00593,0.0114 -0.00955,0.0167l-0.03651,-0.00782c-0.00556,0.00607 -0.0119,0.01146 -0.0189,0.01596l0.00138,0.0369c-0.00586,0.00265 -0.01189,0.00484 -0.01814,0.00657l-0.02261,-0.02897c-0.0043,0.00058 -0.00867,0.00098 -0.01313,0.00098c-0.00412,0 -0.00816,-0.00033 -0.01215,-0.00085l-0.02249,0.02881c-0.00626,-0.00174 -0.01232,-0.00394 -0.01816,-0.00656l0.00135,-0.03625c-0.00733,-0.00459 -0.01397,-0.01015 -0.0198,-0.01645l-0.03555,0.00759c-0.00362,-0.00526 -0.00674,-0.01088 -0.00955,-0.01669l0.02415,-0.02662c-0.00261,-0.00809 -0.00409,-0.01671 -0.00446,-0.02561l-0.03201,-0.01687c0.00064,-0.00649 0.00191,-0.01276 0.00348,-0.01894l0.03566,-0.00491c0.00335,-0.00809 0.0078,-0.01558 0.01312,-0.02238l-0.01366,-0.03343c0.00461,-0.00448 0.00959,-0.00857 0.01483,-0.01233l0.03079,0.01927c0.00751,-0.00389 0.0156,-0.00683 0.0241,-0.00864l0.0112,-0.03459c0.00321,-0.00024 0.00642,-0.00048 0.00968,-0.00048c0.00326,0 0.00647,0.00026 0.00968,0.00048l0.01129,0.0349c0.00832,0.00188 0.0162,0.00479 0.02354,0.00864l0.03126,-0.01956c0.00526,0.00376 0.01026,0.00785 0.01486,0.01233l-0.01406,0.03441c0.00495,0.00651 0.00917,0.01361 0.01235,0.02127l0.03683,0.00508c0.00156,0.00616 0.00286,0.01245 0.00349,0.01893l-0.03315,0.01747c-0.00039,0.00837 -0.00173,0.01648 -0.0041,0.02421l0.02493,0.02745z" opacity="undefined" fill-opacity="0" stroke-opacity="0" stroke-dasharray="null" stroke-width="null" stroke="#000000" fill="#000000"/>
  <path id="svg_21" d="m36.43178,32.05273l-0.01875,0l0,-0.0075l-0.04688,0l0,0.0075l-0.01875,0c-0.00552,0 -0.01,0.00448 -0.01,0.01l0,0.05188c0,0.00552 0.00448,0.01 0.01,0.01l0.08437,0c0.00552,0 0.01,-0.00448 0.01,-0.01l0,-0.05188c0,-0.00552 -0.00448,-0.01 -0.01,-0.01zm-0.04219,0.06625c-0.01671,0 -0.0303,-0.0136 -0.0303,-0.03031c0,-0.01671 0.01359,-0.03031 0.0303,-0.03031s0.03031,0.0136 0.03031,0.03031c0,0.01671 -0.01361,0.03031 -0.03031,0.03031zm0,-0.05062c-0.01122,0 -0.02031,0.00909 -0.02031,0.02031c0,0.01122 0.00909,0.02031 0.02031,0.02031c0.01122,0 0.02031,-0.00909 0.02031,-0.02031c0.00001,-0.01122 -0.00908,-0.02031 -0.02031,-0.02031z" opacity="undefined" fill-opacity="0" stroke-opacity="0" stroke-dasharray="null" stroke-width="null" stroke="#000000" fill="#000000"/>
  <path id="svg_25" d="m-9.64183,60.89017l-0.01875,0l0,-0.0075l-0.04688,0l0,0.0075l-0.01875,0c-0.00552,0 -0.01,0.00448 -0.01,0.01l0,0.05188c0,0.00552 0.00448,0.01 0.01,0.01l0.08438,0c0.00552,0 0.01,-0.00448 0.01,-0.01l0,-0.05188c0,-0.00552 -0.00448,-0.01 -0.01,-0.01zm-0.04219,0.06625c-0.01671,0 -0.0303,-0.0136 -0.0303,-0.03031c0,-0.01671 0.01359,-0.03031 0.0303,-0.03031s0.03031,0.0136 0.03031,0.03031c0,0.01671 -0.01361,0.03031 -0.03031,0.03031zm0,-0.05062c-0.01122,0 -0.02031,0.00909 -0.02031,0.02031c0,0.01122 0.0091,0.02031 0.02031,0.02031c0.01122,0 0.02031,-0.00909 0.02031,-0.02031c0,-0.01122 -0.00908,-0.02031 -0.02031,-0.02031z" opacity="undefined" stroke-opacity="0" stroke-dasharray="null" stroke-width="null" stroke="#000000" fill="#ffffff"/>
  <path id="svg_26" d="m22.36086,9.18166l-1.97304,0l0,-0.0075l-4.93279,0l0,0.0075l-1.97324,0c-0.58087,0 -1.05235,0.00448 -1.05235,0.01l0,0.05188c0,0.00552 0.47148,0.01 1.05235,0.01l8.87906,0c0.58087,0 1.05235,-0.00448 1.05235,-0.01l0,-0.05188c0,-0.00552 -0.47148,-0.01 -1.05235,-0.01zm-4.43983,0.06624c-1.75847,0 -3.18857,-0.01359 -3.18857,-0.0303c0,-0.01671 1.4301,-0.03031 3.18857,-0.03031s3.18957,0.0136 3.18957,0.03031c0,0.01671 -1.43171,0.0303 -3.18957,0.0303zm0,-0.05062c-1.18061,0 -2.13722,0.00909 -2.13722,0.02031c0,0.01122 0.95701,0.02031 2.13722,0.02031c1.18081,0 2.13722,-0.00909 2.13722,-0.02031c0.0006,-0.01122 -0.95601,-0.02031 -2.13722,-0.02031z" opacity="undefined" stroke-opacity="0" stroke-dasharray="null" stroke-width="null" stroke="#000000" fill="#ffffff"/>
  <path id="svg_28" d="m82.05327,35.03592l-0.06149,0l0,-0.0075l-0.15376,0l0,0.0075l-0.06151,0c-0.01809,0 -0.03278,0.00448 -0.03278,0.01l0,0.05188c0,0.00552 0.01469,0.01 0.03278,0.01l0.27675,0c0.01812,0 0.03281,-0.00448 0.03281,-0.01l0,-0.05188c0,-0.00552 -0.01469,-0.01 -0.03281,-0.01zm-0.13836,0.06625c-0.05483,0 -0.0994,-0.0136 -0.0994,-0.03031c0,-0.01671 0.04457,-0.03031 0.0994,-0.03031s0.0994,0.0136 0.0994,0.03031c0,0.01671 -0.04462,0.03031 -0.0994,0.03031zm0,-0.05062c-0.03681,0 -0.06664,0.00909 -0.06664,0.02031c0,0.01122 0.02985,0.02031 0.06664,0.02031c0.03678,0 0.06661,-0.00909 0.06661,-0.02031c0,-0.01122 -0.0298,-0.02031 -0.06661,-0.02031z" opacity="undefined" fill-opacity="null" stroke-opacity="0" stroke-dasharray="null" stroke-width="null" stroke="#000000" fill="#ffffff"/>
  <path id="svg_29" d="m62.6175,22.44025l-0.01875,0l0,-0.0075l-0.04688,0l0,0.0075l-0.01875,0c-0.00552,0 -0.01,0.00448 -0.01,0.01l0,0.05187c0,0.00552 0.00448,0.01 0.01,0.01l0.08437,0c0.00552,0 0.01,-0.00448 0.01,-0.01l0,-0.05187c0,-0.00552 -0.00448,-0.01 -0.01,-0.01zm-0.04219,0.06624c-0.01671,0 -0.0303,-0.01359 -0.0303,-0.0303c0,-0.01671 0.01359,-0.03031 0.0303,-0.03031s0.03031,0.0136 0.03031,0.03031c0,0.01671 -0.01361,0.0303 -0.03031,0.0303zm0,-0.05062c-0.01122,0 -0.02031,0.00909 -0.02031,0.02031c0,0.01122 0.00909,0.02031 0.02031,0.02031c0.01122,0 0.02031,-0.00909 0.02031,-0.02031c0.00001,-0.01122 -0.00908,-0.02031 -0.02031,-0.02031z" opacity="undefined" fill-opacity="null" stroke-opacity="0" stroke-dasharray="null" stroke-width="null" stroke="#000000" fill="#ffffff"/>
  <path id="svg_30" d="m29.15736,22.80046l-0.01531,-0.01531l0,-0.03656l-0.01313,0l0,0.02344l-0.03062,-0.03062l-0.05906,0.05906l0.01406,-0.00034l0,0.05971l0.08937,0l0,-0.05938l0.01468,0zm-0.05906,0.05083l-0.02917,0l0,-0.035l0.02917,0l0,0.035zm0.02834,-0.015l-0.01917,0l0,-0.02021l0.01917,0l0,0.02021z" opacity="undefined" fill-opacity="null" stroke-opacity="0" stroke-dasharray="null" stroke-width="null" stroke="#000000" fill="#ffffff"/>
  <path id="svg_31" d="m19.54488,22.80046l-0.01531,-0.01531l0,-0.03656l-0.01313,0l0,0.02344l-0.03062,-0.03062l-0.05906,0.05906l0.01406,-0.00034l0,0.05971l0.08937,0l0,-0.05938l0.01468,0zm-0.05906,0.05083l-0.02917,0l0,-0.035l0.02917,0l0,0.035zm0.02834,-0.015l-0.01917,0l0,-0.02021l0.01917,0l0,0.02021z" opacity="undefined" fill-opacity="null" stroke-opacity="0" stroke-dasharray="null" stroke-width="null" stroke="#000000" fill="#ffffff"/>
  <path id="svg_32" d="m45.82643,24.11477l-5.44077,-5.25323l0,-12.54656l-4.66427,0l0,8.04292l-10.88343,-10.5083l-20.98831,20.26517l4.99656,-0.11494l0,20.48825l31.76155,0l0,-20.37331l5.21866,0zm-20.98847,17.44301l-10.36445,0l0,-12.00958l10.36445,0l0,12.00958zm10.06957,-5.14699l-6.81073,0l0,-6.93464l6.81073,0l0,6.93464z" opacity="undefined" fill-opacity="null" stroke-opacity="0" stroke-dasharray="null" stroke-width="null" stroke="#000000" fill="#ffffff"/>
  <path id="svg_33" d="m77.55123,19.81728l-0.01531,-0.01531l0,-0.03656l-0.01312,0l0,0.02344l-0.03062,-0.03062l-0.05906,0.05906l0.01406,-0.00034l0,0.05971l0.08937,0l0,-0.05938l0.01469,0zm-0.05906,0.05083l-0.02917,0l0,-0.035l0.02917,0l0,0.035zm0.02834,-0.015l-0.01917,0l0,-0.02021l0.01917,0l0,0.02021z" opacity="undefined" fill-opacity="null" stroke-opacity="0" stroke-dasharray="null" stroke-width="null" stroke="#000000" fill="#ffffff"/>
 </g>
</svg>