<svg width="25" height="25" xmlns="http://www.w3.org/2000/svg">
 <!-- Created with Method Draw - http://github.com/duopixel/Method-Draw/ -->
 <g>
  <title>background</title>
  <rect fill="none" id="canvas_background" height="27" width="27" y="-1" x="-1"/>
  <g display="none" overflow="visible" y="0" x="0" height="100%" width="100%" id="canvasGrid">
   <rect fill="url(#gridpattern)" stroke-width="0" y="0" x="0" height="100%" width="100%"/>
  </g>
 </g>
 <g>
  <title>Layer 1</title>
  <path id="svg_4" d="m13.2575,35.82887l0.01414,-0.01415l0.03875,0.03875l0.0646,-0.06458l0.01415,0.01414l-0.07874,0.07874" stroke-opacity="0" stroke-width="1.5" stroke="#ffffff" fill="#0fffff"/>
  <path id="svg_5" d="m27.06174,18.04503l0.01414,-0.01415l0.03875,0.03874l0.06459,-0.06458l0.01415,0.01414l-0.07874,0.07873" stroke-opacity="0" stroke-width="1.5" stroke="#ffffff" fill="#0fffff"/>
  <path id="svg_6" d="m5.92012,8.96657l0.01414,-0.01415l0.03875,0.03874l0.0646,-0.06458l0.01415,0.01414l-0.07875,0.07874" stroke-opacity="0" stroke-width="1.5" stroke="#ffffff" fill="#0fffff"/>
  <path id="svg_8" d="m13.63059,25.87987l0.01414,-0.01415l0.03875,0.03874l0.0646,-0.06458l0.01415,0.01414l-0.07874,0.07873" stroke-opacity="0" stroke-width="1.5" stroke="#ffffff" fill="#0fffff"/>
  <path id="svg_9" d="m7.41247,6.8524l0.01414,-0.01415l0.03875,0.03874l0.0646,-0.06457l0.01415,0.01414l-0.07875,0.07874" stroke-opacity="0" stroke-width="1.5" stroke="#ffffff" fill="#0fffff"/>
  <path id="svg_10" d="m9.40227,11.20509l0.01414,-0.01415l0.03875,0.03874l0.0646,-0.06458l0.01415,0.01414l-0.07874,0.07874" stroke-opacity="0" stroke-width="1.5" stroke="#ffffff" fill="#0fffff"/>
  <path id="svg_15" d="m13.49146,6.58153l-0.01875,0l0,-0.0075l-0.04688,0l0,0.0075l-0.01875,0c-0.00552,0 -0.01,0.00448 -0.01,0.01l0,0.05187c0,0.00552 0.00448,0.01 0.01,0.01l0.08438,0c0.00552,0 0.01,-0.00448 0.01,-0.01l0,-0.05187c0,-0.00552 -0.00448,-0.01 -0.01,-0.01zm-0.04219,0.06625c-0.01671,0 -0.0303,-0.0136 -0.0303,-0.0303c0,-0.01671 0.01359,-0.03031 0.0303,-0.03031s0.03031,0.0136 0.03031,0.03031c0,0.01671 -0.01361,0.0303 -0.03031,0.0303zm0,-0.05062c-0.01122,0 -0.02031,0.0091 -0.02031,0.02031c0,0.01122 0.0091,0.02031 0.02031,0.02031c0.01122,0 0.02031,-0.00909 0.02031,-0.02031c0,-0.01121 -0.00908,-0.02031 -0.02031,-0.02031z" fill-opacity="null" stroke-opacity="null" stroke-width="1.5" stroke="null" fill="#ffffff"/>
  <path id="svg_16" d="m21.94811,3.3481l-0.01875,0l0,-0.0075l-0.04688,0l0,0.0075l-0.01875,0c-0.00552,0 -0.01,0.00448 -0.01,0.01l0,0.05188c0,0.00552 0.00448,0.01 0.01,0.01l0.08438,0c0.00552,0 0.01,-0.00448 0.01,-0.01l0,-0.05188c0,-0.00552 -0.00448,-0.01 -0.01,-0.01zm-0.04219,0.06625c-0.01671,0 -0.0303,-0.0136 -0.0303,-0.03031c0,-0.01671 0.01359,-0.03031 0.0303,-0.03031s0.03031,0.0136 0.03031,0.03031c0,0.01671 -0.01361,0.03031 -0.03031,0.03031zm0,-0.05062c-0.01122,0 -0.02031,0.00909 -0.02031,0.02031c0,0.01122 0.00909,0.02031 0.02031,0.02031c0.01122,0 0.02031,-0.00909 0.02031,-0.02031c0.00001,-0.01121 -0.00908,-0.02031 -0.02031,-0.02031z" fill-opacity="null" stroke-opacity="null" stroke-width="1.5" stroke="null" fill="#ffffff"/>
  <path id="svg_17" d="m22.94301,7.10924l-0.01875,0l0,-0.03538l-0.04688,0l0,0.03538l-0.01875,0c-0.00552,0 -0.01,0.02113 -0.01,0.04718l0,0.24472c0,0.02604 0.00448,0.04718 0.01,0.04718l0.08438,0c0.00552,0 0.01,-0.02113 0.01,-0.04718l0,-0.24472c0,-0.02604 -0.00448,-0.04718 -0.01,-0.04718zm-0.04219,0.31251c-0.01671,0 -0.0303,-0.06413 -0.0303,-0.14296c0,-0.07883 0.01359,-0.14299 0.0303,-0.14299s0.03031,0.06416 0.03031,0.14299c0,0.07883 -0.01361,0.14296 -0.03031,0.14296zm0,-0.2388c-0.01122,0 -0.02031,0.04291 -0.02031,0.09581c0,0.05293 0.00909,0.09581 0.02031,0.09581c0.01122,0 0.02031,-0.04288 0.02031,-0.09581c0.00001,-0.05291 -0.00908,-0.09581 -0.02031,-0.09581z" fill-opacity="null" stroke-opacity="null" stroke-width="1.5" stroke="null" fill="#ffffff"/>
  <path id="svg_18" d="m-7.15271,-7.72016l-0.01875,0l0,-0.0075l-0.04688,0l0,0.0075l-0.01875,0c-0.00552,0 -0.01,0.00448 -0.01,0.01l0,0.05187c0,0.00552 0.00448,0.01 0.01,0.01l0.08438,0c0.00552,0 0.01,-0.00448 0.01,-0.01l0,-0.05187c0,-0.00552 -0.00448,-0.01 -0.01,-0.01zm-0.04219,0.06625c-0.01671,0 -0.0303,-0.0136 -0.0303,-0.0303c0,-0.01671 0.01359,-0.03031 0.0303,-0.03031s0.03031,0.0136 0.03031,0.03031c0,0.01671 -0.01361,0.0303 -0.03031,0.0303zm0,-0.05062c-0.01122,0 -0.02031,0.0091 -0.02031,0.02031c0,0.01122 0.00909,0.02031 0.02031,0.02031c0.01122,0 0.02031,-0.00909 0.02031,-0.02031c0,-0.01121 -0.00909,-0.02031 -0.02031,-0.02031z" fill-opacity="null" stroke-opacity="null" stroke-width="1.5" stroke="null" fill="#ffffff"/>
  <path id="svg_19" d="m8.51505,6.35122l-0.02222,0l0,-0.02359l-0.05555,0l0,0.02359l-0.02222,0c-0.00654,0 -0.01185,0.01409 -0.01185,0.03145l0,0.16316c0,0.01736 0.00531,0.03145 0.01185,0.03145l0.09999,0c0.00654,0 0.01185,-0.01409 0.01185,-0.03145l0,-0.16316c0,-0.01736 -0.00531,-0.03145 -0.01185,-0.03145zm-0.05,0.20836c-0.0198,0 -0.03591,-0.04276 -0.03591,-0.09532c0,-0.05256 0.0161,-0.09534 0.03591,-0.09534s0.03592,0.04278 0.03592,0.09534c0,0.05256 -0.01612,0.09532 -0.03592,0.09532zm0,-0.15921c-0.0133,0 -0.02407,0.02861 -0.02407,0.06388c0,0.03529 0.01078,0.06388 0.02407,0.06388c0.0133,0 0.02407,-0.02859 0.02407,-0.06388c0.00001,-0.03527 -0.01077,-0.06388 -0.02407,-0.06388z" fill-opacity="null" stroke-opacity="null" stroke-width="1.5" stroke="null" fill="#ffffff"/>
  <path id="svg_21" d="m-15.85808,9.06878l-0.01875,0l0,-0.0075l-0.04688,0l0,0.0075l-0.01875,0c-0.00552,0 -0.01,0.00448 -0.01,0.01l0,0.05188c0,0.00552 0.00448,0.01 0.01,0.01l0.08438,0c0.00552,0 0.01,-0.00448 0.01,-0.01l0,-0.05188c0,-0.00552 -0.00448,-0.01 -0.01,-0.01zm-0.04219,0.06624c-0.01671,0 -0.0303,-0.01359 -0.0303,-0.0303c0,-0.01671 0.01359,-0.03031 0.0303,-0.03031s0.03031,0.0136 0.03031,0.03031c0,0.01671 -0.01361,0.0303 -0.03031,0.0303zm0,-0.05062c-0.01122,0 -0.02031,0.00909 -0.02031,0.02031c0,0.01122 0.0091,0.02031 0.02031,0.02031c0.01122,0 0.02031,-0.00909 0.02031,-0.02031c0,-0.01122 -0.00908,-0.02031 -0.02031,-0.02031z" fill-opacity="0" stroke-opacity="0" stroke-width="1.5" stroke="#ffffff" fill="#ffffff"/>
  <path id="svg_24" d="m-3.5529,-0.6621l0,25.74498l32.36891,0l0,-25.74498l-32.36891,0zm27.27384,23.5352l-22.17872,0l0,-21.32542l22.17872,0l0,21.32542zm-16.7839,-12.96816c1.70957,0 3.09662,-1.3337 3.09662,-2.97749c0,-1.64495 -1.38706,-2.97749 -3.09662,-2.97749c-1.71076,0 -3.09663,1.3337 -3.09663,2.97749c0,1.64379 1.38587,2.97749 3.09663,2.97749zm15.58626,2.59364l-5.89477,-5.66796l-8.29242,7.9734l-2.2982,-2.20977l-3.29924,3.1723l0,5.95381l19.78462,0l0,-9.22178z" stroke-opacity="0" stroke-width="1.5" stroke="#ffffff" fill="#ffffff"/>
  <path id="svg_25" d="m34.52434,14.14055l0,0.11167l0.135,0l0,-0.11167l-0.135,0zm0.11375,0.10209l-0.0925,0l0,-0.0925l0.0925,0l0,0.0925zm-0.07,-0.05625c0.00713,0 0.01291,-0.00578 0.01291,-0.01291c0,-0.00714 -0.00578,-0.01291 -0.01291,-0.01291c-0.00714,0 -0.01292,0.00578 -0.01292,0.01291c0,0.00713 0.00578,0.01291 0.01292,0.01291zm0.065,0.01125l-0.02459,-0.02458l-0.03458,0.03458l-0.00958,-0.00959l-0.01376,0.01376l0,0.02583l0.08252,0l0,-0.04z" stroke-opacity="0" stroke-width="1.5" stroke="#ffffff" fill="#ffffff"/>
  <path id="svg_27" d="m17.23795,10.53404l0,0.11167l0.135,0l0,-0.11167l-0.135,0zm0.11375,0.10209l-0.0925,0l0,-0.0925l0.0925,0l0,0.0925zm-0.07,-0.05625c0.00713,0 0.01291,-0.00578 0.01291,-0.01291c0,-0.00714 -0.00578,-0.01291 -0.01291,-0.01291c-0.00714,0 -0.01291,0.00578 -0.01291,0.01291c0,0.00713 0.00578,0.01291 0.01291,0.01291zm0.06501,0.01125l-0.02459,-0.02458l-0.03459,0.03458l-0.00958,-0.00959l-0.01376,0.01376l0,0.02583l0.08252,0l0,-0.04z" stroke-opacity="0" stroke-width="1.5" stroke="#ffffff" fill="#ffffff"/>
 </g>
</svg>